# Blender v2.79 (sub 0) OBJ File: ''
# www.blender.org
mtllib boxObj.mtl
o Cube
v -1.002469 -1.002469 1.002469
v -1.002469 1.002469 1.002469
v -1.002469 -1.002469 -1.002469
v -1.002469 1.002469 -1.002469
v 1.002469 -1.002469 1.002469
v 1.002469 1.002469 1.002469
v 1.002469 -1.002469 -1.002469
v 1.002469 1.002469 -1.002469
v -1.000000 -0.600000 0.600000
v -1.000000 0.600000 0.600000
v -1.000000 0.600000 -0.600000
v -1.000000 -0.600000 -0.600000
v -0.600000 -0.600000 -1.000000
v -0.600000 0.600000 -1.000000
v 0.600000 0.600000 -1.000000
v 0.600000 -0.600000 -1.000000
v 1.000000 -0.600000 -0.600000
v 1.000000 0.600000 -0.600000
v 1.000000 0.600000 0.600000
v 1.000000 -0.600000 0.600000
v 0.600000 -0.600000 1.000000
v 0.600000 0.600000 1.000000
v -0.600000 0.600000 1.000000
v -0.600000 -0.600000 1.000000
v -0.600000 -1.000000 -0.600000
v 0.600000 -1.000000 -0.600000
v 0.600000 -1.000000 0.600000
v -0.600000 -1.000000 0.600000
v 0.600000 1.000000 -0.600000
v -0.600000 1.000000 -0.600000
v -0.600000 1.000000 0.600000
v 0.600000 1.000000 0.600000
v -0.824373 0.537660 0.537660
v -0.824373 -0.537660 0.537660
v -0.824373 0.537660 -0.537660
v -0.824373 -0.537660 -0.537660
v -0.537660 0.537660 -0.824373
v -0.537660 -0.537660 -0.824373
v 0.537660 0.537660 -0.824373
v 0.537660 -0.537660 -0.824373
v 0.824373 0.537660 -0.537660
v 0.824373 -0.537660 -0.537660
v 0.824373 0.537660 0.537660
v 0.824373 -0.537660 0.537660
v 0.537660 0.537660 0.824373
v 0.537660 -0.537660 0.824373
v -0.537660 0.537660 0.824373
v -0.537660 -0.537660 0.824373
v 0.537660 -0.824373 -0.537660
v -0.537660 -0.824373 -0.537660
v 0.537660 -0.824373 0.537660
v -0.537660 -0.824373 0.537660
v -0.537660 0.824373 -0.537660
v 0.537660 0.824373 -0.537660
v -0.537660 0.824373 0.537660
v 0.537660 0.824373 0.537660
vn 0.0000 0.3345 -0.9424
vn -1.0000 0.0000 -0.0061
vn -1.0000 -0.0061 0.0000
vn -1.0000 0.0000 0.0061
vn -1.0000 0.0061 0.0000
vn 0.0000 0.9424 0.3345
vn 0.0061 0.0000 -1.0000
vn 0.0000 -0.0061 -1.0000
vn -0.0061 0.0000 -1.0000
vn 0.0000 0.0061 -1.0000
vn 0.0000 -0.3345 -0.9424
vn 1.0000 0.0000 0.0061
vn 1.0000 -0.0061 0.0000
vn 1.0000 0.0000 -0.0061
vn 1.0000 0.0061 0.0000
vn 0.3345 0.9424 0.0000
vn -0.0061 0.0000 1.0000
vn 0.0000 -0.0061 1.0000
vn 0.0061 0.0000 1.0000
vn 0.0000 0.0061 1.0000
vn 0.9424 0.3345 0.0000
vn 0.0000 -1.0000 0.0061
vn -0.0061 -1.0000 0.0000
vn 0.0000 -1.0000 -0.0061
vn 0.0061 -1.0000 0.0000
vn 0.9424 0.0000 0.3345
vn 0.0000 1.0000 0.0061
vn 0.0061 1.0000 0.0000
vn 0.0000 1.0000 -0.0061
vn -0.0061 1.0000 0.0000
vn -1.0000 0.0000 0.0000
vn 0.0000 0.0000 -1.0000
vn 1.0000 0.0000 0.0000
vn 0.0000 0.0000 1.0000
vn 0.0000 -1.0000 0.0000
vn 0.0000 1.0000 0.0000
vn 0.9424 -0.3345 0.0000
vn -0.9424 0.3345 0.0000
vn -0.3345 0.0000 -0.9424
vn 0.9424 0.0000 -0.3345
vn -0.3345 -0.9424 0.0000
vn 0.3345 0.0000 0.9424
vn 0.0000 -0.9424 -0.3345
vn -0.9424 0.0000 0.3345
vn -0.3345 0.0000 0.9424
vn 0.3345 -0.9424 0.0000
vn 0.0000 -0.3345 0.9424
vn -0.9424 0.0000 -0.3345
vn 0.0000 -0.9424 0.3345
vn 0.0000 0.3345 0.9424
vn -0.3345 0.9424 0.0000
vn 0.3345 0.0000 -0.9424
vn -0.9424 -0.3345 0.0000
vn 0.0000 0.9424 -0.3345
usemtl Material
s off
f 32//1 55//1 31//1
f 10//2 1//2 2//2
f 11//3 2//3 4//3
f 12//4 4//4 3//4
f 9//5 3//5 1//5
f 21//6 48//6 24//6
f 14//7 3//7 4//7
f 15//8 4//8 8//8
f 16//9 8//9 7//9
f 13//10 7//10 3//10
f 28//11 51//11 27//11
f 18//12 7//12 8//12
f 19//13 8//13 6//13
f 20//14 6//14 5//14
f 17//15 5//15 7//15
f 17//16 44//16 20//16
f 22//17 5//17 6//17
f 23//18 6//18 2//18
f 24//19 2//19 1//19
f 21//20 1//20 5//20
f 31//21 53//21 30//21
f 26//22 3//22 7//22
f 27//23 7//23 5//23
f 28//24 5//24 1//24
f 25//25 1//25 3//25
f 24//26 47//26 23//26
f 30//27 8//27 4//27
f 31//28 4//28 2//28
f 32//29 2//29 6//29
f 29//30 6//30 8//30
f 33//31 36//31 34//31
f 37//32 40//32 38//32
f 41//33 44//33 42//33
f 45//34 48//34 46//34
f 49//35 52//35 50//35
f 53//36 56//36 54//36
f 25//37 52//37 28//37
f 29//38 56//38 32//38
f 10//39 34//39 9//39
f 14//40 38//40 13//40
f 11//41 33//41 10//41
f 18//42 42//42 17//42
f 15//43 37//43 14//43
f 22//44 46//44 21//44
f 12//45 35//45 11//45
f 19//46 41//46 18//46
f 26//47 50//47 25//47
f 16//48 39//48 15//48
f 23//49 45//49 22//49
f 30//50 54//50 29//50
f 9//51 36//51 12//51
f 20//52 43//52 19//52
f 27//53 49//53 26//53
f 13//54 40//54 16//54
f 32//1 56//1 55//1
f 10//2 9//2 1//2
f 11//3 10//3 2//3
f 12//4 11//4 4//4
f 9//5 12//5 3//5
f 21//6 46//6 48//6
f 14//7 13//7 3//7
f 15//8 14//8 4//8
f 16//9 15//9 8//9
f 13//10 16//10 7//10
f 28//11 52//11 51//11
f 18//12 17//12 7//12
f 19//13 18//13 8//13
f 20//14 19//14 6//14
f 17//15 20//15 5//15
f 17//16 42//16 44//16
f 22//17 21//17 5//17
f 23//18 22//18 6//18
f 24//19 23//19 2//19
f 21//20 24//20 1//20
f 31//21 55//21 53//21
f 26//22 25//22 3//22
f 27//23 26//23 7//23
f 28//24 27//24 5//24
f 25//25 28//25 1//25
f 24//26 48//26 47//26
f 30//27 29//27 8//27
f 31//28 30//28 4//28
f 32//29 31//29 2//29
f 29//30 32//30 6//30
f 33//31 35//31 36//31
f 37//32 39//32 40//32
f 41//33 43//33 44//33
f 45//34 47//34 48//34
f 49//35 51//35 52//35
f 53//36 55//36 56//36
f 25//37 50//37 52//37
f 29//38 54//38 56//38
f 10//39 33//39 34//39
f 14//40 37//40 38//40
f 11//41 35//41 33//41
f 18//42 41//42 42//42
f 15//43 39//43 37//43
f 22//44 45//44 46//44
f 12//45 36//45 35//45
f 19//46 43//46 41//46
f 26//47 49//47 50//47
f 16//48 40//48 39//48
f 23//49 47//49 45//49
f 30//50 53//50 54//50
f 9//51 34//51 36//51
f 20//52 44//52 43//52
f 27//53 51//53 49//53
f 13//54 38//54 40//54
