# Blender v2.79 (sub 0) OBJ File: ''
# www.blender.org
mtllib naturePack_096.mtl
o Mesh1_Grey_Cliff_Top_Model
v -2.999685 0.278900 0.923017
v -2.999685 -0.011100 0.003017
v -2.999685 -0.011100 0.783017
v -2.999685 0.278900 0.003017
v -2.999685 0.278900 0.718308
v -2.386875 0.278900 0.776846
v -2.386875 -0.011100 0.636846
v -1.274605 -0.011100 0.420358
v 0.000315 -0.011100 0.003017
v -0.371549 -0.011100 0.664067
v 0.000315 -0.011100 0.783017
v 0.000315 0.278900 0.003017
v 0.000315 0.278900 0.923017
v 0.000315 0.278900 0.713955
v -0.375459 0.278900 0.593754
v -1.268315 0.278900 0.328779
v -2.379465 0.278900 0.570370
v -1.946025 0.278900 0.707246
v -1.924005 0.278900 0.923017
v -1.274605 0.278900 0.560358
v -1.924005 -0.011100 0.783017
v -0.700716 -0.011100 0.783017
v -0.700716 0.278900 0.923017
v -0.371549 0.278900 0.804067
v -0.676731 0.278900 0.702624
v -0.000007 0.278900 0.923017
v -0.000007 -0.011100 0.003017
v -0.000007 -0.011100 0.783017
v -0.000007 0.278900 0.003017
v -0.000007 0.278900 0.718308
v 0.612803 0.278900 0.776846
v 0.612803 -0.011100 0.636846
v 1.725073 -0.011100 0.420358
v 2.999993 -0.011100 0.003017
v 2.628129 -0.011100 0.664067
v 2.999993 -0.011100 0.783017
v 2.999993 0.278900 0.003017
v 2.999993 0.278900 0.923017
v 2.999993 0.278900 0.713955
v 2.624218 0.278900 0.593754
v 1.731362 0.278900 0.328779
v 0.620213 0.278900 0.570370
v 1.053653 0.278900 0.707246
v 1.075673 0.278900 0.923017
v 1.725073 0.278900 0.560358
v 1.075673 -0.011100 0.783017
v 2.298961 -0.011100 0.783017
v 2.298961 0.278900 0.923017
v 2.628129 0.278900 0.804067
v 2.322947 0.278900 0.702624
v -8.999685 0.278900 0.923017
v -8.999685 -0.011100 0.003017
v -8.999685 -0.011100 0.783017
v -8.999685 0.278900 0.003017
v -8.999685 0.278900 0.718308
v -8.386875 0.278900 0.776846
v -8.386875 -0.011100 0.636846
v -7.274605 -0.011100 0.420358
v -5.999685 -0.011100 0.003017
v -6.371550 -0.011100 0.664067
v -5.999685 -0.011100 0.783017
v -5.999685 0.278900 0.003017
v -5.999685 0.278900 0.923017
v -5.999685 0.278900 0.713955
v -6.375460 0.278900 0.593754
v -7.268315 0.278900 0.328779
v -8.379465 0.278900 0.570370
v -7.946025 0.278900 0.707246
v -7.924006 0.278900 0.923017
v -7.274605 0.278900 0.560358
v -7.924006 -0.011100 0.783017
v -6.700716 -0.011100 0.783017
v -6.700716 0.278900 0.923017
v -6.371550 0.278900 0.804067
v -6.676732 0.278900 0.702624
v -6.000008 0.278900 0.923017
v -6.000008 -0.011100 0.003017
v -6.000008 -0.011100 0.783017
v -6.000008 0.278900 0.003017
v -6.000008 0.278900 0.718308
v -5.387197 0.278900 0.776846
v -5.387197 -0.011100 0.636846
v -4.274928 -0.011100 0.420358
v -3.000007 -0.011100 0.003017
v -3.371871 -0.011100 0.664067
v -3.000007 -0.011100 0.783017
v -3.000007 0.278900 0.003017
v -3.000007 0.278900 0.923017
v -3.000007 0.278900 0.713955
v -3.375782 0.278900 0.593754
v -4.268638 0.278900 0.328779
v -5.379787 0.278900 0.570370
v -4.946347 0.278900 0.707246
v -4.924327 0.278900 0.923017
v -4.274928 0.278900 0.560358
v -4.924327 -0.011100 0.783017
v -3.701039 -0.011100 0.783017
v -3.701039 0.278900 0.923017
v -3.371871 0.278900 0.804067
v -3.677053 0.278900 0.702624
v 3.000315 0.278900 0.923017
v 3.000315 -0.011100 0.003017
v 3.000315 -0.011100 0.783017
v 3.000315 0.278900 0.003017
v 3.000315 0.278900 0.718308
v 3.613125 0.278900 0.776846
v 3.613125 -0.011100 0.636846
v 4.725395 -0.011100 0.420358
v 6.000315 -0.011100 0.003017
v 5.628450 -0.011100 0.664067
v 6.000315 -0.011100 0.783017
v 6.000315 0.278900 0.003017
v 6.000315 0.278900 0.923017
v 6.000315 0.278900 0.713955
v 5.624540 0.278900 0.593754
v 4.731685 0.278900 0.328779
v 3.620535 0.278900 0.570370
v 4.053975 0.278900 0.707246
v 4.075994 0.278900 0.923017
v 4.725395 0.278900 0.560358
v 4.075994 -0.011100 0.783017
v 5.299284 -0.011100 0.783017
v 5.299284 0.278900 0.923017
v 5.628450 0.278900 0.804067
v 5.323268 0.278900 0.702624
v 5.999992 0.278900 0.923017
v 5.999992 -0.011100 0.003017
v 5.999992 -0.011100 0.783017
v 5.999992 0.278900 0.003017
v 5.999992 0.278900 0.718308
v 6.612803 0.278900 0.776846
v 6.612803 -0.011100 0.636846
v 7.725072 -0.011100 0.420358
v 8.999992 -0.011100 0.003017
v 8.628128 -0.011100 0.664067
v 8.999992 -0.011100 0.783017
v 8.999992 0.278900 0.003017
v 8.999992 0.278900 0.923017
v 8.999992 0.278900 0.713955
v 8.624218 0.278900 0.593754
v 7.731362 0.278900 0.328779
v 6.620213 0.278900 0.570370
v 7.053653 0.278900 0.707246
v 7.075673 0.278900 0.923017
v 7.725072 0.278900 0.560358
v 7.075673 -0.011100 0.783017
v 8.298962 -0.011100 0.783017
v 8.298962 0.278900 0.923017
v 8.628128 0.278900 0.804067
v 8.322947 0.278900 0.702624
vt 16.535400 11.417300
vt -19.684999 -0.000000
vt 11.023600 -0.000000
vt -19.684999 11.417300
vt 8.476010 11.417300
vt -8.476010 118.110001
vt -16.535400 118.110001
vt -10.780700 93.983902
vt -117.445000 -7.090210
vt -93.920601 5.523270
vt -118.723999 5.523270
vt -92.641701 -7.090210
vt -19.684999 118.110001
vt 5.268870 93.983902
vt 11.023600 118.110001
vt -3.254290 50.193600
vt -19.684999 0.000000
vt 6.340550 14.640300
vt 11.023600 -0.000000
vt 19.684999 11.417300
vt -11.023600 -0.000000
vt 19.684999 0.000000
vt -16.535400 11.417300
vt -8.304630 11.417300
vt 19.684999 0.000000
vt -3.572320 14.794200
vt -8.304630 -0.000000
vt 6.859780 49.946201
vt 19.684999 118.110001
vt -2.651690 93.692299
vt -8.040530 76.627502
vt -16.535400 75.760399
vt -2.257520 50.193600
vt -74.207199 1.781170
vt -42.236401 -10.608900
vt -44.923801 1.781170
vt -71.519798 -10.608900
vt -86.375099 26.504801
vt -68.924301 13.935700
vt -67.264603 26.504801
vt -88.034897 13.935700
vt 11.023600 75.760399
vt -17.442499 9.092080
vt -41.225399 21.423599
vt -44.169800 9.092080
vt -14.498100 21.423599
vt -15.923800 0.408251
vt -31.576500 12.947200
vt -29.703300 0.408251
vt -17.797001 12.947200
vt 3.358540 4.386300
vt -10.333300 16.952700
vt -12.012500 4.386300
vt 5.037820 16.952700
vt -11.852400 14.640300
vt -16.535400 -0.000000
vt -7.858530 26.655300
vt -16.535400 27.599600
vt 11.023600 27.599600
vt -0.000000 11.417300
vt 118.110001 -0.000000
vt 118.110001 11.417300
vt -0.000000 -0.000000
vt 16.535400 11.417300
vt -19.684999 -0.000000
vt 11.023600 -0.000000
vt -19.684999 11.417300
vt 8.476010 11.417300
vt -8.476010 118.110001
vt -16.535400 118.110001
vt -10.780700 93.983902
vt -117.445000 -7.090210
vt -93.920601 5.523270
vt -118.723999 5.523270
vt -92.641701 -7.090210
vt -19.684999 118.110001
vt 5.268870 93.983902
vt 11.023600 118.110001
vt -3.254290 50.193600
vt -19.684999 0.000000
vt 6.340550 14.640300
vt 11.023600 -0.000000
vt 19.684999 11.417300
vt -11.023600 -0.000000
vt 19.684999 0.000000
vt -16.535400 11.417300
vt -8.304630 11.417300
vt 19.684999 0.000000
vt -3.572320 14.794200
vt -8.304630 -0.000000
vt 6.859780 49.946201
vt 19.684999 118.110001
vt -2.651690 93.692299
vt -8.040530 76.627502
vt -16.535400 75.760399
vt -2.257520 50.193600
vt -74.207199 1.781170
vt -42.236401 -10.608900
vt -44.923801 1.781170
vt -71.519798 -10.608900
vt -86.375099 26.504801
vt -68.924301 13.935700
vt -67.264603 26.504801
vt -88.034897 13.935700
vt 11.023600 75.760399
vt -17.442499 9.092080
vt -41.225399 21.423599
vt -44.169800 9.092080
vt -14.498100 21.423599
vt -15.923800 0.408251
vt -31.576500 12.947200
vt -29.703300 0.408251
vt -17.797001 12.947200
vt 3.358540 4.386300
vt -10.333300 16.952700
vt -12.012500 4.386300
vt 5.037820 16.952700
vt -11.852400 14.640300
vt -16.535400 -0.000000
vt -7.858530 26.655300
vt -16.535400 27.599600
vt 11.023600 27.599600
vt -0.000000 11.417300
vt 118.110001 -0.000000
vt 118.110001 11.417300
vt -0.000000 -0.000000
vt 16.535400 11.417300
vt -19.684999 -0.000000
vt 11.023600 -0.000000
vt -19.684999 11.417300
vt 8.476010 11.417300
vt -8.476010 118.110001
vt -16.535400 118.110001
vt -10.780700 93.983902
vt -117.445000 -7.090210
vt -93.920601 5.523270
vt -118.723999 5.523270
vt -92.641701 -7.090210
vt -19.684999 118.110001
vt 5.268870 93.983902
vt 11.023600 118.110001
vt -3.254290 50.193600
vt -19.684999 0.000000
vt 6.340550 14.640300
vt 11.023600 -0.000000
vt 19.684999 11.417300
vt -11.023600 -0.000000
vt 19.684999 0.000000
vt -16.535400 11.417300
vt -8.304630 11.417300
vt 19.684999 0.000000
vt -3.572320 14.794200
vt -8.304630 -0.000000
vt 6.859780 49.946201
vt 19.684999 118.110001
vt -2.651690 93.692299
vt -8.040530 76.627502
vt -16.535400 75.760399
vt -2.257520 50.193600
vt -74.207199 1.781170
vt -42.236401 -10.608900
vt -44.923801 1.781170
vt -71.519798 -10.608900
vt -86.375099 26.504801
vt -68.924301 13.935700
vt -67.264603 26.504801
vt -88.034897 13.935700
vt 11.023600 75.760399
vt -17.442499 9.092080
vt -41.225399 21.423599
vt -44.169800 9.092080
vt -14.498100 21.423599
vt -15.923800 0.408251
vt -31.576500 12.947200
vt -29.703300 0.408251
vt -17.797001 12.947200
vt 3.358540 4.386300
vt -10.333300 16.952700
vt -12.012500 4.386300
vt 5.037820 16.952700
vt -11.852400 14.640300
vt -16.535400 -0.000000
vt -7.858530 26.655300
vt -16.535400 27.599600
vt 11.023600 27.599600
vt -0.000000 11.417300
vt 118.110001 -0.000000
vt 118.110001 11.417300
vt -0.000000 -0.000000
vt 16.535400 11.417300
vt -19.684999 -0.000000
vt 11.023600 -0.000000
vt -19.684999 11.417300
vt 8.476010 11.417300
vt -8.476010 118.110001
vt -16.535400 118.110001
vt -10.780700 93.983902
vt -117.445000 -7.090210
vt -93.920601 5.523270
vt -118.723999 5.523270
vt -92.641701 -7.090210
vt -19.684999 118.110001
vt 5.268870 93.983902
vt 11.023600 118.110001
vt -3.254290 50.193600
vt -19.684999 0.000000
vt 6.340550 14.640300
vt 11.023600 -0.000000
vt 19.684999 11.417300
vt -11.023600 -0.000000
vt 19.684999 0.000000
vt -16.535400 11.417300
vt -8.304630 11.417300
vt 19.684999 0.000000
vt -3.572320 14.794200
vt -8.304630 -0.000000
vt 6.859780 49.946201
vt 19.684999 118.110001
vt -2.651690 93.692299
vt -8.040530 76.627502
vt -16.535400 75.760399
vt -2.257520 50.193600
vt -74.207199 1.781170
vt -42.236401 -10.608900
vt -44.923801 1.781170
vt -71.519798 -10.608900
vt -86.375099 26.504801
vt -68.924301 13.935700
vt -67.264603 26.504801
vt -88.034897 13.935700
vt 11.023600 75.760399
vt -17.442499 9.092080
vt -41.225399 21.423599
vt -44.169800 9.092080
vt -14.498100 21.423599
vt -15.923800 0.408251
vt -31.576500 12.947200
vt -29.703300 0.408251
vt -17.797001 12.947200
vt 3.358540 4.386300
vt -10.333300 16.952700
vt -12.012500 4.386300
vt 5.037820 16.952700
vt -11.852400 14.640300
vt -16.535400 -0.000000
vt -7.858530 26.655300
vt -16.535400 27.599600
vt 11.023600 27.599600
vt -0.000000 11.417300
vt 118.110001 -0.000000
vt 118.110001 11.417300
vt -0.000000 -0.000000
vt 16.535400 11.417300
vt -19.684999 -0.000000
vt 11.023600 -0.000000
vt -19.684999 11.417300
vt 8.476010 11.417300
vt -8.476010 118.110001
vt -16.535400 118.110001
vt -10.780700 93.983902
vt -117.445000 -7.090210
vt -93.920601 5.523270
vt -118.723999 5.523270
vt -92.641701 -7.090210
vt -19.684999 118.110001
vt 5.268870 93.983902
vt 11.023600 118.110001
vt -3.254290 50.193600
vt -19.684999 0.000000
vt 6.340550 14.640300
vt 11.023600 -0.000000
vt 19.684999 11.417300
vt -11.023600 -0.000000
vt 19.684999 0.000000
vt -16.535400 11.417300
vt -8.304630 11.417300
vt 19.684999 0.000000
vt -3.572320 14.794200
vt -8.304630 -0.000000
vt 6.859780 49.946201
vt 19.684999 118.110001
vt -2.651690 93.692299
vt -8.040530 76.627502
vt -16.535400 75.760399
vt -2.257520 50.193600
vt -74.207199 1.781170
vt -42.236401 -10.608900
vt -44.923801 1.781170
vt -71.519798 -10.608900
vt -86.375099 26.504801
vt -68.924301 13.935700
vt -67.264603 26.504801
vt -88.034897 13.935700
vt 11.023600 75.760399
vt -17.442499 9.092080
vt -41.225399 21.423599
vt -44.169800 9.092080
vt -14.498100 21.423599
vt -15.923800 0.408251
vt -31.576500 12.947200
vt -29.703300 0.408251
vt -17.797001 12.947200
vt 3.358540 4.386300
vt -10.333300 16.952700
vt -12.012500 4.386300
vt 5.037820 16.952700
vt -11.852400 14.640300
vt -16.535400 -0.000000
vt -7.858530 26.655300
vt -16.535400 27.599600
vt 11.023600 27.599600
vt -0.000000 11.417300
vt 118.110001 -0.000000
vt 118.110001 11.417300
vt -0.000000 -0.000000
vt 16.535400 11.417300
vt -19.684999 -0.000000
vt 11.023600 -0.000000
vt -19.684999 11.417300
vt 8.476010 11.417300
vt -8.476010 118.110001
vt -16.535400 118.110001
vt -10.780700 93.983902
vt -117.445000 -7.090210
vt -93.920601 5.523270
vt -118.723999 5.523270
vt -92.641701 -7.090210
vt -19.684999 118.110001
vt 5.268870 93.983902
vt 11.023600 118.110001
vt -3.254290 50.193600
vt -19.684999 0.000000
vt 6.340550 14.640300
vt 11.023600 -0.000000
vt 19.684999 11.417300
vt -11.023600 -0.000000
vt 19.684999 0.000000
vt -16.535400 11.417300
vt -8.304630 11.417300
vt 19.684999 0.000000
vt -3.572320 14.794200
vt -8.304630 -0.000000
vt 6.859780 49.946201
vt 19.684999 118.110001
vt -2.651690 93.692299
vt -8.040530 76.627502
vt -16.535400 75.760399
vt -2.257520 50.193600
vt -74.207199 1.781170
vt -42.236401 -10.608900
vt -44.923801 1.781170
vt -71.519798 -10.608900
vt -86.375099 26.504801
vt -68.924301 13.935700
vt -67.264603 26.504801
vt -88.034897 13.935700
vt 11.023600 75.760399
vt -17.442499 9.092080
vt -41.225399 21.423599
vt -44.169800 9.092080
vt -14.498100 21.423599
vt -15.923800 0.408251
vt -31.576500 12.947200
vt -29.703300 0.408251
vt -17.797001 12.947200
vt 3.358540 4.386300
vt -10.333300 16.952700
vt -12.012500 4.386300
vt 5.037820 16.952700
vt -11.852400 14.640300
vt -16.535400 -0.000000
vt -7.858530 26.655300
vt -16.535400 27.599600
vt 11.023600 27.599600
vt -0.000000 11.417300
vt 118.110001 -0.000000
vt 118.110001 11.417300
vt -0.000000 -0.000000
vn -1.0000 -0.0003 0.0000
vn -1.0000 0.0000 0.0000
vn -1.0000 -0.0002 0.0000
vn 0.1760 -0.9844 0.0000
vn 0.0000 1.0000 0.0000
vn 0.2100 -0.4251 0.8805
vn -0.0000 -1.0000 0.0000
vn 1.0000 0.0000 0.0000
vn 0.0000 0.0000 0.0000
vn 0.4493 -0.3884 0.8045
vn -0.2735 -0.4182 0.8662
vn -0.4946 -0.3778 0.7827
vn 0.3095 -0.4134 0.8563
vn -0.2768 -0.4178 0.8654
vn -0.0000 0.0000 -1.0000
vn 0.0298 -0.9996 0.0000
vn -1.0000 0.0003 0.0000
vn -1.0000 0.0002 0.0000
vn 0.0891 0.9960 0.0000
usemtl Stone
s 1
f 1/1/1 2/2/2 3/3/2
f 2/2/2 1/1/1 4/4/3
f 4/4/3 1/1/1 5/5/4
f 5/6/5 1/7/5 6/8/5
f 3/9/6 6/10/6 1/11/6
f 6/10/6 3/9/6 7/12/6
f 2/13/7 7/14/7 3/15/7
f 7/14/7 2/13/7 8/16/7
f 9/17/7 8/16/7 2/13/7
f 9/17/7 10/18/7 8/16/7
f 10/18/7 9/17/7 11/19/7
f 12/20/8 11/21/8 9/22/8
f 11/21/8 12/20/8 13/23/8
f 13/23/8 12/20/8 14/24/9
f 12/25/5 15/26/5 14/27/5
f 15/26/5 12/25/5 16/28/5
f 4/29/5 16/28/5 12/25/5
f 4/29/5 17/30/5 16/28/5
f 17/30/5 4/29/5 5/6/5
f 17/30/5 5/6/5 18/31/5
f 6/8/5 18/31/5 5/6/5
f 19/32/5 18/31/5 6/8/5
f 18/31/5 19/32/5 20/33/5
f 19/34/10 8/35/10 20/36/10
f 8/35/10 19/34/10 21/37/10
f 6/38/11 21/39/11 19/40/11
f 21/39/11 6/38/11 7/41/11
f 8/16/7 21/42/7 7/14/7
f 22/43/12 20/44/12 8/45/12
f 20/44/12 22/43/12 23/46/12
f 10/47/13 23/48/13 22/49/13
f 23/48/13 10/47/13 24/50/13
f 11/51/14 24/52/14 10/53/14
f 24/52/14 11/51/14 13/54/14
f 14/27/5 24/55/5 13/56/5
f 25/57/5 24/55/5 14/27/5
f 20/33/5 24/55/5 25/57/5
f 24/55/5 20/33/5 23/58/5
f 20/33/5 25/57/5 16/28/5
f 16/28/5 25/57/5 15/26/5
f 15/26/5 25/57/5 14/27/5
f 18/31/5 20/33/5 16/28/5
f 16/28/5 17/30/5 18/31/5
f 8/16/7 10/18/7 22/59/7
f 12/60/15 2/61/15 4/62/15
f 2/61/15 12/60/15 9/63/15
f 26/64/2 27/65/2 28/66/2
f 27/65/2 26/64/2 29/67/2
f 29/67/2 26/64/2 30/68/8
f 30/69/5 26/70/5 31/71/5
f 28/72/6 31/73/6 26/74/6
f 31/73/6 28/72/6 32/75/6
f 27/76/7 32/77/7 28/78/7
f 32/77/7 27/76/7 33/79/7
f 34/80/7 33/79/7 27/76/7
f 34/80/7 35/81/7 33/79/7
f 35/81/7 34/80/7 36/82/7
f 37/83/8 36/84/8 34/85/8
f 36/84/8 37/83/8 38/86/8
f 38/86/8 37/83/8 39/87/9
f 37/88/5 40/89/5 39/90/5
f 40/89/5 37/88/5 41/91/5
f 29/92/5 41/91/5 37/88/5
f 29/92/5 42/93/5 41/91/5
f 42/93/5 29/92/5 30/69/5
f 42/93/5 30/69/5 43/94/5
f 31/71/5 43/94/5 30/69/5
f 44/95/5 43/94/5 31/71/5
f 43/94/5 44/95/5 45/96/5
f 44/97/10 33/98/10 45/99/10
f 33/98/10 44/97/10 46/100/10
f 31/101/11 46/102/11 44/103/11
f 46/102/11 31/101/11 32/104/11
f 33/79/7 46/105/7 32/77/7
f 47/106/12 45/107/12 33/108/12
f 45/107/12 47/106/12 48/109/12
f 35/110/13 48/111/13 47/112/13
f 48/111/13 35/110/13 49/113/13
f 36/114/14 49/115/14 35/116/14
f 49/115/14 36/114/14 38/117/14
f 39/90/5 49/118/5 38/119/5
f 50/120/5 49/118/5 39/90/5
f 45/96/5 49/118/5 50/120/5
f 49/118/5 45/96/5 48/121/5
f 45/96/5 50/120/5 41/91/5
f 41/91/5 50/120/5 40/89/5
f 40/89/5 50/120/5 39/90/5
f 43/94/5 45/96/5 41/91/5
f 41/91/5 42/93/5 43/94/5
f 33/79/7 35/81/7 47/122/7
f 37/123/15 27/124/15 29/125/15
f 27/124/15 37/123/15 34/126/15
f 51/127/1 52/128/2 53/129/2
f 52/128/2 51/127/1 54/130/3
f 54/130/3 51/127/1 55/131/16
f 55/132/5 51/133/5 56/134/5
f 53/135/6 56/136/6 51/137/6
f 56/136/6 53/135/6 57/138/6
f 52/139/7 57/140/7 53/141/7
f 57/140/7 52/139/7 58/142/7
f 59/143/7 58/142/7 52/139/7
f 59/143/7 60/144/7 58/142/7
f 60/144/7 59/143/7 61/145/7
f 62/146/8 61/147/8 59/148/8
f 61/147/8 62/146/8 63/149/8
f 63/149/8 62/146/8 64/150/7
f 62/151/5 65/152/5 64/153/5
f 65/152/5 62/151/5 66/154/5
f 54/155/5 66/154/5 62/151/5
f 54/155/5 67/156/5 66/154/5
f 67/156/5 54/155/5 55/132/5
f 67/156/5 55/132/5 68/157/5
f 56/134/5 68/157/5 55/132/5
f 69/158/5 68/157/5 56/134/5
f 68/157/5 69/158/5 70/159/5
f 69/160/10 58/161/10 70/162/10
f 58/161/10 69/160/10 71/163/10
f 56/164/11 71/165/11 69/166/11
f 71/165/11 56/164/11 57/167/11
f 58/142/7 71/168/7 57/140/7
f 72/169/12 70/170/12 58/171/12
f 70/170/12 72/169/12 73/172/12
f 60/173/13 73/174/13 72/175/13
f 73/174/13 60/173/13 74/176/13
f 61/177/14 74/178/14 60/179/14
f 74/178/14 61/177/14 63/180/14
f 64/153/5 74/181/5 63/182/5
f 75/183/5 74/181/5 64/153/5
f 70/159/5 74/181/5 75/183/5
f 74/181/5 70/159/5 73/184/5
f 70/159/5 75/183/5 66/154/5
f 66/154/5 75/183/5 65/152/5
f 65/152/5 75/183/5 64/153/5
f 68/157/5 70/159/5 66/154/5
f 66/154/5 67/156/5 68/157/5
f 58/142/7 60/144/7 72/185/7
f 62/186/15 52/187/15 54/188/15
f 52/187/15 62/186/15 59/189/15
f 76/190/17 77/191/2 78/192/2
f 77/191/2 76/190/17 79/193/18
f 79/193/18 76/190/17 80/194/19
f 80/195/5 76/196/5 81/197/5
f 78/198/6 81/199/6 76/200/6
f 81/199/6 78/198/6 82/201/6
f 77/202/7 82/203/7 78/204/7
f 82/203/7 77/202/7 83/205/7
f 84/206/7 83/205/7 77/202/7
f 84/206/7 85/207/7 83/205/7
f 85/207/7 84/206/7 86/208/7
f 87/209/8 86/210/8 84/211/8
f 86/210/8 87/209/8 88/212/8
f 88/212/8 87/209/8 89/213/9
f 87/214/5 90/215/5 89/216/5
f 90/215/5 87/214/5 91/217/5
f 79/218/5 91/217/5 87/214/5
f 79/218/5 92/219/5 91/217/5
f 92/219/5 79/218/5 80/195/5
f 92/219/5 80/195/5 93/220/5
f 81/197/5 93/220/5 80/195/5
f 94/221/5 93/220/5 81/197/5
f 93/220/5 94/221/5 95/222/5
f 94/223/10 83/224/10 95/225/10
f 83/224/10 94/223/10 96/226/10
f 81/227/11 96/228/11 94/229/11
f 96/228/11 81/227/11 82/230/11
f 83/205/7 96/231/7 82/203/7
f 97/232/12 95/233/12 83/234/12
f 95/233/12 97/232/12 98/235/12
f 85/236/13 98/237/13 97/238/13
f 98/237/13 85/236/13 99/239/13
f 86/240/14 99/241/14 85/242/14
f 99/241/14 86/240/14 88/243/14
f 89/216/5 99/244/5 88/245/5
f 100/246/5 99/244/5 89/216/5
f 95/222/5 99/244/5 100/246/5
f 99/244/5 95/222/5 98/247/5
f 95/222/5 100/246/5 91/217/5
f 91/217/5 100/246/5 90/215/5
f 90/215/5 100/246/5 89/216/5
f 93/220/5 95/222/5 91/217/5
f 91/217/5 92/219/5 93/220/5
f 83/205/7 85/207/7 97/248/7
f 87/249/15 77/250/15 79/251/15
f 77/250/15 87/249/15 84/252/15
f 101/253/1 102/254/2 103/255/2
f 102/254/2 101/253/1 104/256/3
f 104/256/3 101/253/1 105/257/4
f 105/258/5 101/259/5 106/260/5
f 103/261/6 106/262/6 101/263/6
f 106/262/6 103/261/6 107/264/6
f 102/265/7 107/266/7 103/267/7
f 107/266/7 102/265/7 108/268/7
f 109/269/7 108/268/7 102/265/7
f 109/269/7 110/270/7 108/268/7
f 110/270/7 109/269/7 111/271/7
f 112/272/8 111/273/8 109/274/8
f 111/273/8 112/272/8 113/275/8
f 113/275/8 112/272/8 114/276/7
f 112/277/5 115/278/5 114/279/5
f 115/278/5 112/277/5 116/280/5
f 104/281/5 116/280/5 112/277/5
f 104/281/5 117/282/5 116/280/5
f 117/282/5 104/281/5 105/258/5
f 117/282/5 105/258/5 118/283/5
f 106/260/5 118/283/5 105/258/5
f 119/284/5 118/283/5 106/260/5
f 118/283/5 119/284/5 120/285/5
f 119/286/10 108/287/10 120/288/10
f 108/287/10 119/286/10 121/289/10
f 106/290/11 121/291/11 119/292/11
f 121/291/11 106/290/11 107/293/11
f 108/268/7 121/294/7 107/266/7
f 122/295/12 120/296/12 108/297/12
f 120/296/12 122/295/12 123/298/12
f 110/299/13 123/300/13 122/301/13
f 123/300/13 110/299/13 124/302/13
f 111/303/14 124/304/14 110/305/14
f 124/304/14 111/303/14 113/306/14
f 114/279/5 124/307/5 113/308/5
f 125/309/5 124/307/5 114/279/5
f 120/285/5 124/307/5 125/309/5
f 124/307/5 120/285/5 123/310/5
f 120/285/5 125/309/5 116/280/5
f 116/280/5 125/309/5 115/278/5
f 115/278/5 125/309/5 114/279/5
f 118/283/5 120/285/5 116/280/5
f 116/280/5 117/282/5 118/283/5
f 108/268/7 110/270/7 122/311/7
f 112/312/15 102/313/15 104/314/15
f 102/313/15 112/312/15 109/315/15
f 126/316/17 127/317/2 128/318/2
f 127/317/2 126/316/17 129/319/18
f 129/319/18 126/316/17 130/320/19
f 130/321/5 126/322/5 131/323/5
f 128/324/6 131/325/6 126/326/6
f 131/325/6 128/324/6 132/327/6
f 127/328/7 132/329/7 128/330/7
f 132/329/7 127/328/7 133/331/7
f 134/332/7 133/331/7 127/328/7
f 134/332/7 135/333/7 133/331/7
f 135/333/7 134/332/7 136/334/7
f 137/335/8 136/336/8 134/337/8
f 136/336/8 137/335/8 138/338/8
f 138/338/8 137/335/8 139/339/9
f 137/340/5 140/341/5 139/342/5
f 140/341/5 137/340/5 141/343/5
f 129/344/5 141/343/5 137/340/5
f 129/344/5 142/345/5 141/343/5
f 142/345/5 129/344/5 130/321/5
f 142/345/5 130/321/5 143/346/5
f 131/323/5 143/346/5 130/321/5
f 144/347/5 143/346/5 131/323/5
f 143/346/5 144/347/5 145/348/5
f 144/349/10 133/350/10 145/351/10
f 133/350/10 144/349/10 146/352/10
f 131/353/11 146/354/11 144/355/11
f 146/354/11 131/353/11 132/356/11
f 133/331/7 146/357/7 132/329/7
f 147/358/12 145/359/12 133/360/12
f 145/359/12 147/358/12 148/361/12
f 135/362/13 148/363/13 147/364/13
f 148/363/13 135/362/13 149/365/13
f 136/366/14 149/367/14 135/368/14
f 149/367/14 136/366/14 138/369/14
f 139/342/5 149/370/5 138/371/5
f 150/372/5 149/370/5 139/342/5
f 145/348/5 149/370/5 150/372/5
f 149/370/5 145/348/5 148/373/5
f 145/348/5 150/372/5 141/343/5
f 141/343/5 150/372/5 140/341/5
f 140/341/5 150/372/5 139/342/5
f 143/346/5 145/348/5 141/343/5
f 141/343/5 142/345/5 143/346/5
f 133/331/7 135/333/7 147/374/7
f 137/375/15 127/376/15 129/377/15
f 127/376/15 137/375/15 134/378/15
